<?xml version="1.0" standalone="no"?>
<!DOCTYPE svg PUBLIC "-//W3C//DTD SVG 20010904//EN"
 "http://www.w3.org/TR/2001/REC-SVG-20010904/DTD/svg10.dtd">
<svg version="1.0" xmlns="http://www.w3.org/2000/svg"
 width="612.000000pt" height="612.000000pt" viewBox="0 0 612.000000 612.000000"
 preserveAspectRatio="xMidYMid meet">
<metadata>
Created by potrace 1.14, written by Peter Selinger 2001-2017
</metadata>
<g transform="translate(0.000000,612.000000) scale(0.100000,-0.100000)"
fill="#000000" stroke="none">
<path d="M0 3060 l0 -3060 3060 0 3060 0 0 3060 0 3060 -3060 0 -3060 0 0
-3060z m3699 2480 c29 -10 56 -22 60 -26 3 -4 -2 -4 -13 0 -10 3 -38 11 -62
17 -25 6 -47 15 -50 20 -8 13 6 11 65 -11z m136 0 c8 -13 -5 -13 -25 0 -13 8
-13 10 2 10 9 0 20 -4 23 -10z m-90 -45 c22 -13 33 -25 25 -25 -12 0 -10 -4 4
-15 28 -21 12 -19 -35 6 -22 11 -50 19 -62 17 -16 -3 -8 -9 29 -20 28 -9 69
-25 92 -37 50 -25 59 -26 41 -4 -12 15 -12 16 6 9 11 -5 31 -11 45 -13 l25 -5
-25 21 c-14 11 -33 23 -42 27 -10 3 -18 13 -18 22 1 15 2 15 13 2 19 -24 76
-52 89 -44 6 4 8 3 4 -4 -7 -11 220 -132 249 -132 18 0 64 -27 84 -49 12 -14
13 -14 8 2 -11 31 19 19 52 -20 49 -61 72 -81 130 -120 52 -34 156 -117 188
-149 26 -25 24 -15 -2 20 -25 33 -25 34 -5 29 12 -3 45 -28 75 -54 29 -27 56
-49 61 -49 4 0 -54 59 -130 132 -110 106 -134 133 -122 140 15 8 15 11 1 24
-8 8 -19 13 -24 10 -4 -3 -17 4 -27 17 l-19 22 24 -20 c22 -18 24 -18 18 -2
-6 15 -4 16 16 6 12 -7 24 -13 27 -13 3 -1 4 -4 3 -8 -4 -10 93 -108 107 -108
13 0 5 16 -23 47 -11 13 -18 25 -15 28 3 4 34 -21 68 -54 35 -34 59 -61 55
-61 -5 0 -17 8 -28 18 -16 13 -18 14 -11 1 15 -25 134 -175 205 -258 36 -42
74 -89 84 -106 10 -16 28 -40 39 -53 14 -16 17 -25 9 -33 -8 -8 -14 -5 -22 10
-7 12 -9 21 -6 21 4 0 -10 20 -31 45 -20 25 -39 43 -42 40 -3 -2 0 -10 5 -17
5 -7 13 -22 16 -33 7 -20 7 -20 -8 -1 -8 11 -17 17 -20 14 -3 -2 4 -13 15 -23
11 -10 20 -24 20 -32 0 -19 25 -44 35 -35 5 4 5 1 1 -6 -4 -7 2 -28 14 -47 27
-44 36 -45 15 -2 -18 37 -9 27 55 -58 24 -33 54 -68 66 -78 13 -10 26 -27 30
-39 3 -11 33 -70 65 -130 33 -60 59 -115 59 -121 0 -7 -4 -6 -10 3 -5 8 -10
11 -10 5 0 -5 -7 1 -15 15 -19 34 -19 19 1 -30 9 -23 14 -44 10 -47 -3 -4 -6
-1 -6 6 0 7 -4 9 -10 6 -6 -4 -7 1 -3 11 4 12 3 15 -5 10 -8 -4 -10 -2 -6 7 6
17 -42 118 -62 130 -8 4 -14 14 -14 21 0 7 -13 29 -30 47 -16 19 -28 39 -26
44 4 13 -32 83 -48 92 -6 4 -5 -1 3 -10 8 -10 11 -20 8 -23 -9 -9 -29 35 -21
48 4 7 3 8 -4 4 -6 -4 -18 6 -26 22 -8 16 -31 39 -51 50 -32 19 -35 20 -35 4
-1 -13 -7 -10 -27 13 l-26 30 18 -30 c10 -16 38 -56 62 -89 61 -80 80 -114
183 -325 83 -170 148 -343 157 -416 1 -16 7 -41 13 -55 9 -23 39 -166 55 -265
10 -60 4 -531 -7 -550 -5 -9 -18 -108 -24 -180 -1 -16 -7 -52 -13 -80 -6 -27
-9 -55 -6 -62 2 -7 1 -13 -4 -13 -5 0 -14 -21 -21 -47 -7 -27 -23 -91 -37
-143 -13 -52 -30 -108 -38 -125 -7 -16 -16 -43 -20 -60 -19 -84 -236 -475
-264 -475 -5 0 -18 -19 -29 -43 -11 -23 -40 -63 -64 -89 -72 -78 -113 -132
-112 -145 1 -7 -2 -11 -6 -8 -5 3 -57 -43 -116 -102 -60 -60 -84 -87 -54 -60
30 26 82 68 115 94 l60 47 -55 -55 c-72 -71 -255 -219 -270 -219 -3 0 18 21
45 46 45 42 46 44 10 18 -22 -15 -65 -48 -95 -72 -30 -25 -66 -50 -80 -56 -14
-6 -27 -13 -30 -17 -8 -10 -183 -109 -194 -109 -5 0 -7 -3 -3 -6 3 -3 50 17
103 45 53 28 99 49 101 47 14 -14 -331 -180 -470 -225 -37 -13 -65 -26 -62
-31 3 -4 -5 -8 -18 -8 -35 -1 -136 -18 -210 -36 -38 -9 -85 -15 -105 -15 l-37
2 40 6 c24 4 35 9 28 14 -7 4 -40 3 -75 -3 -75 -13 -386 -26 -377 -16 4 4 74
11 155 16 133 9 349 41 362 55 10 9 -52 5 -137 -10 -50 -9 -110 -12 -146 -9
-34 3 -77 2 -96 -3 -39 -10 -342 17 -473 43 -45 8 -98 18 -119 21 -21 3 -41
11 -44 19 -3 8 -13 14 -22 14 -14 0 -14 -2 -1 -10 13 -8 13 -10 -1 -10 -9 0
-19 6 -22 13 -3 8 -35 22 -71 31 -41 11 -63 22 -59 29 4 6 0 8 -11 4 -9 -4
-15 -3 -12 2 8 12 -18 21 -57 21 -18 0 -50 9 -72 20 -37 19 -33 20 13 4 9 -3
-1 5 -23 19 -22 14 -44 23 -48 20 -5 -3 -3 -9 4 -14 31 -19 -7 -7 -77 26 -51
23 -73 38 -68 46 5 9 2 10 -12 6 -18 -7 -18 -6 -1 7 17 13 16 14 -7 12 -13 0
-22 -4 -19 -9 6 -10 -5 -9 -28 4 -11 5 -16 15 -13 21 4 7 3 8 -4 4 -7 -4 -22
0 -34 8 -12 9 -18 16 -12 16 5 0 15 -5 22 -12 9 -9 12 -9 12 0 0 7 -8 16 -17
19 -10 4 -27 15 -38 25 -26 25 -176 120 -181 115 -2 -2 29 -27 68 -55 40 -29
68 -52 61 -52 -12 0 -182 126 -243 180 -52 46 -14 24 48 -28 29 -25 55 -43 58
-40 2 3 -35 38 -83 78 -135 113 -318 308 -318 340 0 4 -9 16 -20 26 -12 11
-16 16 -10 12 7 -4 14 -5 17 -2 3 3 39 -37 80 -88 185 -229 484 -464 741 -581
83 -38 60 -14 -31 33 -265 135 -567 381 -739 602 -43 55 -80 94 -83 88 -4 -7
-14 -1 -24 15 -10 14 -22 23 -28 19 -8 -5 -9 -1 -5 10 4 10 3 15 -3 11 -5 -3
-14 5 -21 17 -12 22 -11 22 6 8 17 -14 18 -14 5 10 -24 45 -63 100 -67 96 -3
-3 2 -15 11 -28 9 -12 16 -27 16 -33 0 -5 -14 13 -30 40 -31 52 -40 84 -15 51
8 -11 15 -18 15 -15 0 9 -70 134 -70 126 0 -5 4 -17 10 -27 11 -21 3 -53 -11
-44 -5 3 -9 10 -9 15 0 6 5 7 10 4 16 -10 11 7 -21 65 -16 30 -27 44 -23 31 4
-15 2 -21 -4 -17 -6 3 -13 0 -16 -6 -4 -7 -4 -2 -2 11 3 14 -17 79 -48 160
-127 322 -175 643 -143 946 9 83 21 161 27 175 9 22 10 20 5 -14 -11 -67 -13
-398 -4 -499 17 -189 81 -517 102 -517 5 0 6 -7 3 -16 -3 -8 -2 -13 3 -10 5 3
8 -5 8 -18 0 -13 10 -34 22 -47 26 -28 26 -23 1 33 -23 53 -83 288 -105 413
-42 233 -13 701 56 930 73 240 175 485 231 556 13 16 10 7 -8 -29 -14 -30 -24
-56 -21 -58 5 -5 67 97 67 109 0 3 23 43 51 89 29 46 52 89 52 96 0 6 3 10 5
7 7 -7 42 25 42 38 0 5 -8 3 -17 -4 -15 -11 -14 -9 1 9 11 12 22 20 24 17 3
-3 17 5 30 17 26 24 -5 -23 -94 -145 -41 -55 -55 -88 -36 -87 4 1 30 36 58 78
28 42 55 76 61 75 6 -1 21 10 34 25 22 25 22 26 2 8 -13 -11 -23 -15 -23 -9 0
13 35 45 42 38 3 -3 63 52 134 122 111 111 117 116 46 37 -45 -50 -82 -94 -82
-98 0 -4 -23 -37 -52 -74 -88 -115 -73 -107 31 16 24 28 47 50 51 47 3 -2 24
14 46 37 22 24 31 38 21 35 -11 -4 -16 -3 -12 3 4 6 12 9 19 8 7 -2 58 37 114
86 98 86 163 134 234 174 18 11 75 45 126 76 93 57 129 74 169 82 12 2 42 13
66 23 69 30 235 81 260 81 12 -1 -48 -25 -133 -54 -252 -86 -484 -214 -658
-361 -101 -86 -241 -225 -226 -225 6 0 19 10 30 21 31 35 255 219 266 219 6 0
5 -7 -3 -17 -13 -15 -12 -15 8 -5 12 7 25 17 28 22 4 6 34 24 68 41 69 35 69
35 -28 -48 -38 -33 -90 -82 -115 -108 -25 -27 -69 -75 -99 -107 -30 -32 -51
-61 -48 -64 3 -4 -6 -23 -20 -43 -17 -23 -1 -11 45 34 40 38 72 75 72 82 0 14
39 38 47 29 3 -3 -14 -27 -38 -53 -24 -26 -69 -74 -99 -108 -85 -92 -140 -172
-93 -134 9 8 2 -7 -16 -33 -17 -27 -34 -48 -37 -48 -7 0 5 20 24 43 8 9 13 20
10 22 -8 9 -102 -122 -158 -219 -50 -87 -125 -252 -154 -337 -52 -159 -99
-416 -112 -622 -4 -59 -10 -105 -13 -101 -3 3 -9 47 -12 97 -4 54 -6 5 -4
-118 3 -166 8 -227 23 -290 28 -114 93 -317 100 -311 3 3 -1 24 -8 46 -23 69
-4 54 28 -22 57 -137 119 -263 144 -293 13 -16 50 -68 83 -115 32 -47 82 -112
111 -145 28 -33 54 -71 55 -85 3 -15 11 -25 21 -25 9 0 42 -26 73 -58 31 -31
60 -57 65 -57 5 0 14 -9 20 -21 10 -18 9 -19 -7 -11 -10 6 -27 20 -37 31 -23
26 -38 27 -29 4 4 -12 -5 -8 -25 11 -18 17 -32 35 -32 43 0 7 -10 18 -22 24
-39 20 -60 42 -47 50 7 4 -6 26 -37 60 -27 30 -61 69 -75 88 -21 26 -27 30
-32 17 -4 -9 -3 -16 2 -16 5 0 12 -11 15 -24 9 -37 242 -275 264 -269 22 5 95
-63 86 -80 -4 -7 -4 -9 1 -5 4 4 17 3 29 -3 20 -10 20 -10 2 5 -15 12 -17 19
-8 28 16 16 42 -7 37 -33 -2 -11 0 -17 6 -14 5 4 6 11 3 17 -5 8 -1 9 12 4 13
-4 11 0 -8 16 -15 13 -56 48 -92 78 -36 30 -63 56 -61 58 2 2 36 -24 77 -58
62 -53 130 -101 236 -167 12 -7 26 -12 31 -9 4 3 23 -5 40 -19 18 -13 63 -36
99 -51 37 -14 82 -33 100 -41 51 -22 143 -53 159 -53 8 0 11 4 8 10 -3 5 6 12
20 16 14 3 24 9 21 11 -2 3 -19 0 -38 -7 -28 -10 -39 -9 -78 9 -25 11 -42 21
-38 21 3 0 14 3 24 7 12 4 15 3 10 -5 -5 -8 -2 -10 8 -6 22 8 20 11 -14 23
-18 6 -28 6 -25 1 4 -6 4 -10 1 -10 -2 0 -13 -3 -23 -6 -15 -5 -15 -4 -3 5 13
9 12 11 -5 12 -11 1 -26 1 -32 0 -22 -3 -14 9 11 19 19 7 50 1 133 -26 218
-70 222 -71 373 -79 l85 -4 -70 13 c-38 7 -101 21 -140 31 -38 10 -83 19 -100
20 -36 2 -58 8 -65 16 -3 4 -48 21 -100 39 -52 18 -125 47 -161 66 -68 34
-144 94 -120 94 7 0 -24 25 -70 57 -46 31 -94 64 -107 74 -13 10 -31 15 -40
12 -13 -4 -14 -3 -3 5 11 8 11 11 -2 18 -9 5 -52 44 -96 87 -44 43 -85 76 -90
72 -6 -3 -20 14 -32 39 -11 25 -27 50 -35 57 -8 6 -14 16 -14 22 0 5 10 -3 22
-19 61 -80 338 -324 368 -324 6 0 10 -4 10 -10 0 -5 9 -10 20 -10 11 0 20 -6
20 -14 0 -8 14 -17 30 -21 17 -4 40 -17 52 -28 11 -12 17 -15 12 -7 -4 8 8 3
28 -12 20 -16 45 -28 55 -28 11 0 28 -7 39 -15 22 -17 34 -19 34 -6 0 5 -9 13
-20 16 -11 4 -18 11 -15 16 4 5 -7 14 -22 21 -15 6 -35 17 -43 24 -36 29 -139
74 -156 68 -14 -4 -15 -3 -6 4 10 7 -6 24 -65 68 -43 32 -109 93 -148 134
l-70 75 60 -55 c136 -124 320 -253 350 -244 16 4 17 3 5 -5 -12 -8 4 -19 73
-51 48 -22 93 -40 101 -40 7 0 30 -7 51 -15 27 -12 40 -13 50 -5 7 6 25 8 40
4 17 -4 23 -9 15 -14 -7 -4 20 -15 60 -24 77 -17 108 -20 75 -6 -16 6 -8 10
33 15 29 4 55 12 58 16 3 5 20 9 37 9 25 0 29 -2 17 -11 -12 -9 -11 -10 8 -6
12 3 22 1 22 -4 0 -5 12 -9 28 -8 l27 1 -25 7 c-19 6 -10 9 37 12 48 3 59 1
51 -8 -15 -19 -4 -16 20 6 14 11 45 21 84 25 34 3 64 10 68 15 3 6 30 13 60
16 75 10 227 48 330 84 155 54 259 101 223 101 -6 0 -60 -18 -120 -39 -122
-45 -310 -104 -334 -107 -9 0 -28 -4 -42 -8 -14 -3 -28 -2 -32 3 -3 5 7 12 22
14 16 3 -10 4 -57 1 -56 -2 -76 0 -60 5 18 6 -4 10 -75 11 -55 1 -125 5 -155
9 l-55 7 68 5 c38 2 71 1 73 -2 5 -9 54 1 54 11 0 4 37 10 83 14 110 9 200 27
212 42 12 13 166 66 173 60 2 -3 -5 -11 -17 -18 -12 -7 -21 -16 -21 -20 0 -7
27 1 75 21 99 42 126 56 112 59 -23 5 -22 22 1 22 10 0 26 6 37 14 11 7 31 16
45 20 l25 7 -25 -21 -25 -21 25 12 c43 21 194 125 214 148 11 11 26 21 34 21
8 0 21 8 29 18 8 10 11 11 7 2 -4 -8 11 1 33 20 23 19 42 39 42 43 1 4 10 17
21 29 10 12 17 24 15 29 -3 4 8 13 25 21 16 7 30 17 30 21 0 5 17 29 39 53 36
41 117 181 109 189 -2 2 -21 -30 -42 -71 -42 -78 -56 -92 -49 -47 4 27 4 27
-11 9 -9 -11 -16 -16 -16 -10 0 19 17 34 33 29 12 -5 23 8 44 52 15 32 28 66
28 75 0 10 4 17 10 17 10 -1 43 65 44 89 2 23 -17 12 -29 -18 -20 -48 -22 -29
-3 31 15 49 17 51 24 29 5 -17 7 -19 8 -7 1 11 6 15 13 11 6 -4 8 -3 5 3 -4 6
1 25 10 43 9 18 16 46 17 62 1 15 5 28 10 28 4 0 5 11 2 25 -4 14 -2 25 2 25
8 0 26 106 36 207 4 44 -18 188 -37 238 -9 22 -16 32 -16 23 -1 -12 -6 -15
-17 -11 -13 5 -15 -1 -9 -41 6 -39 5 -46 -9 -46 -9 0 -16 -5 -16 -10 0 -6 6
-9 13 -8 9 2 12 -19 14 -77 0 -47 -2 -68 -6 -50 -4 19 -9 26 -14 18 -4 -7 -5
-24 -1 -39 5 -18 3 -25 -4 -20 -6 3 -13 2 -17 -4 -3 -5 1 -10 9 -10 9 0 17 -9
18 -22 4 -68 3 -84 -9 -96 -15 -16 -17 -49 -4 -54 6 -1 0 -25 -11 -53 -50
-122 -59 -132 -33 -36 8 30 13 57 13 60 -1 3 2 26 6 50 6 30 5 46 -3 51 -7 3
-9 14 -5 23 3 9 10 14 15 11 5 -3 9 7 9 23 0 23 -2 25 -11 13 -8 -11 -9 -3 -4
30 12 80 6 234 -10 260 -2 4 -7 20 -10 36 -7 42 -23 91 -24 77 -2 -28 -21 -11
-21 18 0 27 -2 30 -15 19 -14 -11 -19 -7 -16 13 0 4 -3 7 -9 7 -5 0 -7 7 -4
15 4 8 1 15 -6 15 -6 0 -10 6 -7 13 4 11 -40 107 -49 107 -1 0 3 -21 11 -47 8
-26 13 -49 11 -51 -3 -2 -19 27 -36 64 -39 81 -91 169 -121 204 -17 20 -15 15
6 -23 15 -27 25 -50 23 -52 -2 -2 -25 25 -51 60 -46 64 -102 109 -120 98 -5
-3 -2 -10 7 -15 9 -5 16 -18 16 -28 0 -10 4 -21 9 -25 6 -3 9 -15 8 -26 -1
-19 -3 -19 -25 8 -14 15 -22 21 -19 12 15 -45 -114 60 -178 145 -21 28 -30 52
-31 82 -1 24 2 41 7 38 5 -3 12 8 15 25 4 17 10 31 15 31 4 0 7 19 6 43 -2 37
1 42 21 45 26 4 26 8 7 42 -8 14 -14 37 -15 51 0 15 -10 39 -22 54 -15 20 -21
39 -19 64 3 45 26 64 67 58 27 -5 31 -3 27 14 -3 10 0 19 6 19 6 0 11 9 11 21
0 36 19 59 48 59 17 0 33 8 42 21 8 12 30 35 47 52 18 16 30 33 28 38 -3 4 -1
10 5 14 19 12 10 24 -35 51 -25 14 -43 30 -40 34 3 5 0 12 -6 16 -8 4 -9 3 -5
-4 4 -7 4 -12 0 -12 -12 0 -97 52 -130 79 -17 14 -46 34 -64 44 -18 10 -30 20
-27 24 4 3 12 1 19 -4 7 -6 23 -14 36 -18 26 -8 27 12 2 32 -11 9 -12 12 -2
13 9 0 7 8 -7 29 -11 15 -18 31 -14 34 10 11 -19 38 -34 33 -9 -4 -11 -1 -7 6
5 8 2 9 -10 5 -9 -4 -15 -3 -11 2 11 19 -54 67 -114 86 -34 10 -64 22 -66 26
-3 4 16 1 41 -7 26 -7 50 -11 55 -8 5 2 22 -2 38 -11 32 -16 61 -20 61 -7 0 4
-17 15 -39 24 -27 12 -42 26 -49 47 -11 30 -10 31 21 31 l32 1 -35 19 c-19 11
-29 19 -21 20 11 0 11 3 1 15 -10 13 -9 15 11 17 13 0 29 1 36 1 21 -1 -9 35
-39 48 -15 6 -25 15 -22 20 3 5 0 9 -7 9 -10 0 -10 3 -1 12 15 15 84 -15 121
-53 15 -16 41 -29 64 -32 20 -3 37 -4 37 -2 0 2 -25 16 -55 31 -30 15 -53 30
-51 32 7 7 127 -59 122 -67 -8 -12 48 -34 71 -29 13 3 3 12 -34 31 -33 17 -50
32 -47 40 5 14 -67 58 -116 72 -18 5 -14 -1 15 -19 22 -14 36 -26 32 -26 -12
0 -106 49 -127 67 -49 42 -1 44 78 4 57 -30 171 -81 179 -81 2 0 2 4 -2 9 -6
11 29 34 38 24 3 -3 19 -2 34 2 l28 8 -30 12 c-16 8 -67 29 -112 49 -46 19
-83 33 -83 30 0 -3 20 -14 45 -25 25 -11 45 -22 45 -24 0 -3 -42 -1 -83 4 -5
1 -5 6 -1 13 4 7 3 8 -5 4 -9 -6 -9 -11 0 -23 9 -9 -3 -7 -34 8 -25 12 -44 26
-42 30 3 4 -2 9 -10 13 -32 12 -15 28 23 22 l37 -6 -37 20 c-21 11 -38 23 -38
26 0 4 21 3 48 -1 26 -4 54 -8 62 -9 8 -1 26 -7 38 -14 13 -8 26 -11 29 -8 3
3 -14 15 -38 26 -24 11 -37 20 -29 20 8 0 33 -11 55 -25z m430 -105 c3 -6 -1
-7 -9 -4 -18 7 -21 14 -7 14 6 0 13 -4 16 -10z m-365 -30 c8 -5 11 -10 5 -10
-5 0 -17 5 -25 10 -8 5 -10 10 -5 10 6 0 17 -5 25 -10z m410 -5 c33 -19 41
-18 33 2 -4 11 9 4 35 -17 23 -18 39 -36 36 -41 -2 -4 26 -28 63 -52 38 -25
77 -55 88 -68 l20 -23 -25 17 c-14 9 -41 25 -60 34 -19 10 -44 25 -55 34 -19
16 -102 66 -152 91 -25 12 -39 38 -20 38 7 -1 23 -7 37 -15z m-619 -11 c17 -8
29 -18 26 -20 -6 -6 -67 23 -67 31 0 8 10 6 41 -11z m-31 -79 c0 -10 -16 -4
-40 16 l-25 20 33 -16 c17 -8 32 -18 32 -20z m-933 -91 c-3 -3 -12 -4 -19 -1
-8 3 -5 6 6 6 11 1 17 -2 13 -5z m-57 -14 c-14 -4 -34 -8 -45 -8 -16 0 -15 2
5 8 14 4 34 8 45 8 16 0 15 -2 -5 -8z m423 -47 c-13 -2 -33 -2 -45 0 -13 2 -3
4 22 4 25 0 35 -2 23 -4z m-608 -23 c-3 -5 -12 -10 -18 -10 -7 0 -6 4 3 10 19
12 23 12 15 0z m-165 -95 c-14 -8 -29 -14 -35 -14 -5 0 1 6 15 14 14 8 30 14
35 14 6 0 -1 -6 -15 -14z m-463 -18 c0 -8 -5 -14 -11 -14 -6 0 -20 -4 -31 -8
-11 -4 -7 2 10 14 17 11 30 21 31 21 0 0 1 -6 1 -13z m403 -8 c-8 -5 -40 -23
-70 -40 -30 -16 -70 -39 -88 -51 -18 -11 -35 -19 -37 -17 -5 6 186 119 199
119 6 0 4 -5 -4 -11z m-565 -109 c-3 -5 -16 -15 -28 -21 -19 -9 -19 -8 3 10
28 23 34 26 25 11z m1965 -10 c21 -11 41 -24 45 -29 4 -8 -77 32 -94 46 -13
10 15 0 49 -17z m177 -82 c10 -13 25 -24 33 -26 23 -5 33 -19 19 -27 -8 -5
-10 -4 -5 3 4 7 1 13 -6 13 -28 3 -34 5 -72 23 -33 17 -36 21 -20 27 29 11 31
11 51 -13z m-914 -45 c-7 -2 -19 -2 -25 0 -7 3 -2 5 12 5 14 0 19 -2 13 -5z
m-50 -10 c-7 -2 -19 -2 -25 0 -7 3 -2 5 12 5 14 0 19 -2 13 -5z m1037 -38 c59
-36 80 -55 61 -55 -5 0 -13 4 -16 10 -6 9 -105 60 -105 54 0 -1 7 -10 16 -18
14 -15 13 -16 -8 -12 -13 3 -31 5 -40 5 -11 1 -15 6 -12 16 4 8 2 15 -4 15 -5
0 -12 6 -15 14 -10 26 60 9 123 -29z m-1910 30 c0 -2 -10 -9 -22 -15 -22 -11
-22 -10 -4 4 21 17 26 19 26 11z m1930 -75 c12 -8 12 -10 1 -10 -11 0 -11 -3
0 -17 13 -16 12 -17 -3 -4 -10 7 -15 18 -11 24 4 6 0 8 -11 4 -10 -4 -15 -3
-11 3 8 12 16 12 35 0z m-1890 -14 c0 -2 -7 -7 -16 -10 -8 -3 -12 -2 -9 4 6
10 25 14 25 6z m1975 -14 c-3 -3 -11 0 -18 7 -9 10 -8 11 6 5 10 -3 15 -9 12
-12z m1149 -8 c3 -8 2 -12 -4 -9 -6 3 -10 10 -10 16 0 14 7 11 14 -7z m-1269
-24 c3 -5 -1 -10 -9 -10 -8 0 -18 5 -21 10 -3 6 1 10 9 10 8 0 18 -4 21 -10z
m-2452 -35 c-15 -19 -29 -32 -32 -29 -4 4 48 64 56 64 2 0 -9 -16 -24 -35z
m-272 -58 c-10 -9 -11 -8 -5 6 3 10 9 15 12 12 3 -3 0 -11 -7 -18z m2595 -30
c5 -9 4 -9 -7 1 -19 18 -28 15 -24 -9 3 -17 2 -19 -10 -9 -8 7 -12 16 -9 21 3
5 -1 9 -8 9 -10 0 -9 3 1 9 16 10 45 -1 57 -22z m-2616 -1 c0 -2 -8 -10 -17
-17 -16 -13 -17 -12 -4 4 13 16 21 21 21 13z m-64 -98 c-20 -29 -36 -47 -36
-41 0 15 62 105 68 99 2 -3 -12 -28 -32 -58z m148 7 c-38 -57 -54 -72 -33 -32
14 27 58 87 65 87 2 0 -12 -25 -32 -55z m2446 5 c8 -5 11 -10 5 -10 -5 0 -17
5 -25 10 -8 5 -10 10 -5 10 6 0 17 -5 25 -10z m-2010 -82 c-23 -28 -47 -66
-55 -85 -8 -18 -19 -33 -26 -33 -7 0 -10 -2 -7 -5 3 -3 -9 -21 -27 -40 -36
-40 -122 -194 -153 -275 -12 -30 -35 -102 -52 -160 -18 -58 -43 -142 -57 -188
-14 -46 -29 -112 -33 -148 -5 -36 -11 -68 -14 -71 -8 -8 3 111 15 165 13 59
-2 79 -17 22 -18 -67 -16 -26 3 65 9 44 17 96 17 115 2 44 15 82 26 75 4 -3
13 9 19 25 12 35 26 41 15 8 -10 -33 -1 -21 40 54 20 36 36 73 36 81 0 9 4 17
9 19 4 2 22 30 38 63 37 74 153 255 165 255 4 0 8 5 8 12 0 10 78 98 87 98 2
0 -15 -23 -37 -52z m150 39 c0 -2 -10 -12 -22 -23 l-23 -19 19 23 c18 21 26
27 26 19z m239 -67 c-77 -69 -216 -242 -277 -345 -23 -38 -42 -65 -42 -60 0 6
9 24 20 40 26 39 26 58 0 25 -33 -42 -21 -8 14 40 18 25 37 44 42 44 10 -1 35
31 38 49 5 30 240 267 264 267 4 0 -23 -27 -59 -60z m-1048 -23 c-10 -9 -11
-8 -5 6 3 10 9 15 12 12 3 -3 0 -11 -7 -18z m839 -10 c0 -2 -15 -16 -32 -33
l-33 -29 29 33 c28 30 36 37 36 29z m232 -19 c-6 -6 -15 -8 -19 -4 -4 4 -1 11
7 16 19 12 27 3 12 -12z m-172 -2 c0 -2 -8 -10 -17 -17 -16 -13 -17 -12 -4 4
13 16 21 21 21 13z m-932 -41 c-6 -14 -13 -24 -14 -22 -6 6 9 47 17 47 5 0 3
-11 -3 -25z m853 -48 l-24 -22 19 27 c10 14 21 24 23 22 3 -3 -6 -15 -18 -27z
m-878 -2 c-3 -9 -8 -14 -10 -11 -3 3 -2 9 2 15 9 16 15 13 8 -4z m530 0 c-3
-9 -8 -14 -10 -11 -3 3 -2 9 2 15 9 16 15 13 8 -4z m483 -13 c-17 -16 -18 -16
-5 5 7 12 15 20 18 17 3 -2 -3 -12 -13 -22z m-342 -27 c-9 -14 -19 -23 -22
-20 -5 4 26 45 35 45 2 0 -4 -11 -13 -25z m97 -124 c-84 -138 -111 -202 -160
-376 -47 -167 -51 -187 -50 -225 1 -23 3 -27 6 -12 2 12 9 22 15 22 6 0 8 11
6 25 -3 14 -2 25 1 25 3 0 7 19 8 41 0 23 5 44 11 48 5 3 11 26 14 51 5 43 79
234 99 254 18 20 18 -2 -1 -55 -17 -51 -20 -124 -6 -148 3 -5 0 -11 -8 -14 -8
-3 -17 1 -20 9 -3 8 -2 13 2 10 4 -3 8 11 8 30 0 42 -16 20 -19 -26 -1 -16 -5
-30 -9 -30 -5 0 -8 -4 -8 -9 0 -5 10 -7 21 -4 19 5 20 4 10 -15 -15 -29 -14
-37 4 -22 18 15 19 3 5 -34 -6 -17 -6 -26 0 -26 6 0 10 -10 10 -22 0 -19 -2
-20 -10 -8 -8 12 -10 12 -10 -5 0 -17 -2 -17 -10 -5 -6 9 -10 10 -10 3 0 -6 5
-15 11 -18 6 -4 7 -14 4 -24 -4 -9 -8 -72 -10 -141 l-3 -125 10 95 c5 52 16
118 22 145 11 43 12 20 8 -160 -4 -214 16 -456 38 -463 6 -2 10 -12 10 -23 0
-10 6 -19 13 -19 10 0 56 -104 78 -178 11 -36 -10 -15 -32 32 -10 22 -27 55
-37 71 -11 17 -24 47 -31 68 -7 20 -16 35 -21 32 -4 -3 -13 18 -20 45 -11 46
-13 49 -26 33 -13 -16 -14 -15 -8 10 5 20 3 27 -7 25 -9 -2 -16 17 -24 59 -5
34 -14 65 -18 69 -9 9 -3 -36 19 -165 8 -46 13 -85 11 -88 -6 -6 -34 125 -46
216 -14 103 -32 117 -27 20 3 -41 7 -85 10 -99 4 -14 13 -61 21 -105 8 -44 17
-90 21 -102 4 -14 2 -23 -4 -23 -11 0 -16 12 -27 68 -4 17 -10 32 -14 32 -7 0
-21 110 -22 173 0 9 -7 29 -15 45 -15 26 -15 24 -10 -38 9 -93 52 -303 81
-389 13 -41 20 -70 14 -64 -15 15 -57 143 -89 273 -36 145 -52 286 -53 470 -1
128 3 161 30 280 32 139 87 300 104 300 12 0 12 -1 -7 -45 -8 -20 -10 -34 -5
-30 6 3 11 11 11 16 0 24 201 369 215 369 2 0 -31 -58 -74 -129z m-800 96
c-10 -9 -11 -8 -5 6 3 10 9 15 12 12 3 -3 0 -11 -7 -18z m2720 1 c11 -21 11
-22 -4 -9 -10 7 -17 17 -17 22 0 15 9 10 21 -13z m-1991 -77 c-16 -29 -30 -54
-30 -56 0 -2 -13 -26 -30 -52 -16 -26 -30 -43 -30 -39 0 14 81 169 98 189 27
31 24 11 -8 -42z m222 10 c-9 -16 -18 -28 -21 -26 -4 5 27 55 34 55 2 0 -4
-13 -13 -29z m3546 4 c-3 -3 -9 2 -12 12 -6 14 -5 15 5 6 7 -7 10 -15 7 -18z
m-4563 -121 c-20 -60 -45 -142 -55 -184 -29 -115 -30 -118 -25 -75 3 22 5 55
5 73 0 21 4 31 11 27 7 -5 10 3 8 21 -4 40 21 125 34 117 6 -4 8 0 4 10 -7 19
1 49 12 43 4 -3 13 16 19 41 7 25 15 43 18 41 3 -3 -11 -54 -31 -114z m4590
-7 c38 -117 29 -127 -11 -12 -45 132 -49 147 -30 115 9 -14 27 -60 41 -103z
m-3622 38 c-18 -39 -38 -48 -27 -13 6 19 30 46 41 48 2 0 -5 -16 -14 -35z
m-311 6 c-5 -3 -17 -28 -25 -56 -9 -27 -27 -79 -42 -115 -32 -80 -79 -260 -94
-360 -40 -270 -23 -556 46 -773 8 -26 13 -52 11 -57 -6 -20 -67 197 -80 285
-8 54 -13 180 -12 315 0 216 2 231 32 360 17 74 40 160 50 190 34 94 103 231
114 224 7 -4 7 -9 0 -13z m131 -36 c-9 -19 -18 -33 -21 -31 -4 5 26 66 33 66
3 0 -3 -16 -12 -35z m63 -104 c-1 -16 -4 -27 -8 -25 -4 2 -10 -5 -13 -17 -4
-11 -9 -18 -11 -16 -4 4 25 87 31 87 1 0 2 -13 1 -29z m-205 -18 c-12 -20 -14
-14 -5 12 4 9 9 14 11 11 3 -2 0 -13 -6 -23z m235 -8 c-17 -41 -35 -73 -36
-63 0 11 39 98 45 98 3 0 -1 -16 -9 -35z m-211 -14 c-3 -6 -11 -11 -16 -11 -5
0 -4 6 3 14 14 16 24 13 13 -3z m-41 -120 c-80 -284 -97 -496 -60 -761 9 -63
19 -128 22 -145 5 -28 4 -29 -11 -11 -8 11 -15 31 -15 45 0 14 -7 60 -16 101
-12 55 -17 128 -17 270 -1 175 2 209 27 325 15 72 36 154 47 184 11 30 18 60
15 68 -3 7 -3 20 0 28 6 14 8 13 19 -2 10 -14 8 -32 -11 -102z m346 -38 c-21
-69 -44 -160 -60 -243 -5 -25 -9 -81 -10 -125 0 -44 -5 -87 -10 -95 -23 -36 6
304 34 391 19 63 58 151 63 145 2 -2 -5 -35 -17 -73z m2244 21 c3 -8 2 -12 -4
-9 -6 3 -10 10 -10 16 0 14 7 11 14 -7z m-2371 -67 c-9 -32 -18 -55 -20 -53
-3 3 3 30 12 61 9 32 18 55 20 53 3 -2 -3 -30 -12 -61z m61 -28 c-9 -41 -23
-86 -30 -101 -8 -15 -14 -44 -14 -65 0 -21 -5 -54 -11 -73 -5 -19 -14 -64 -19
-100 l-8 -65 0 82 c1 45 4 101 9 125 30 172 31 175 65 277 3 10 8 11 15 4 7
-7 5 -34 -7 -84z m-976 -41 c-13 -113 -16 -510 -5 -672 4 -66 3 -75 -5 -48
-11 32 -34 47 -24 15 3 -10 8 -38 11 -63 9 -59 57 -237 89 -326 14 -39 26 -79
26 -88 0 -10 7 -24 16 -33 8 -9 13 -22 10 -30 -7 -18 79 -202 139 -299 25 -39
45 -74 45 -77 0 -3 21 -37 47 -74 39 -56 43 -64 21 -48 -15 11 -28 22 -28 25
0 3 -20 35 -43 72 -88 137 -221 421 -257 553 -5 17 -16 57 -26 90 -45 162 -57
230 -80 455 -27 268 -30 429 -6 405 4 -4 12 24 18 62 l12 68 -6 -90 c-5 -88 7
-118 13 -33 2 24 11 89 19 145 9 57 16 106 16 110 0 3 3 4 6 1 3 -4 0 -57 -8
-120z m-21 70 c-3 -7 -5 -2 -5 12 0 14 2 19 5 13 2 -7 2 -19 0 -25z m-7 -50
c0 -21 -3 -29 -10 -22 -5 5 -7 19 -4 32 9 31 14 27 14 -10z m917 -40 c-3 -8
-6 -5 -6 6 -1 11 2 17 5 13 3 -3 4 -12 1 -19z m2582 -4 c4 10 7 -4 7 -34 l0
-53 -12 34 c-7 19 -12 43 -12 54 l0 20 6 -20 c4 -19 5 -19 11 -1z m-3032 -46
c-3 -7 -5 -2 -5 12 0 14 2 19 5 13 2 -7 2 -19 0 -25z m-510 -40 c-3 -8 -6 -5
-6 6 -1 11 2 17 5 13 3 -3 4 -12 1 -19z m500 -20 c-3 -8 -6 -5 -6 6 -1 11 2
17 5 13 3 -3 4 -12 1 -19z m3063 -122 c0 -39 -6 -31 -14 19 -5 29 -4 36 3 25
6 -8 11 -28 11 -44z m-3040 -62 c0 -47 -3 -83 -7 -81 -8 5 -5 167 3 167 2 0 4
-39 4 -86z m3247 54 c-3 -8 -6 -5 -6 6 -1 11 2 17 5 13 3 -3 4 -12 1 -19z
m1030 -55 c-3 -10 -5 -2 -5 17 0 19 2 27 5 18 2 -10 2 -26 0 -35z m-1137 -77
c0 -19 -4 -38 -10 -41 -6 -4 -10 10 -10 34 0 23 5 41 10 41 6 0 10 -15 10 -34z
m1107 -18 c-3 -8 -6 -5 -6 6 -1 11 2 17 5 13 3 -3 4 -12 1 -19z m-4207 -324
c11 -49 23 -98 26 -109 4 -13 3 -17 -4 -10 -24 24 -73 301 -71 398 1 34 6 10
14 -69 8 -67 23 -162 35 -210z m757 304 c-3 -8 -6 -5 -6 6 -1 11 2 17 5 13 3
-3 4 -12 1 -19z m-590 -75 c-3 -10 -5 -4 -5 12 0 17 2 24 5 18 2 -7 2 -21 0
-30z m2913 -92 c-17 -108 -29 -129 -23 -41 3 41 10 83 14 92 5 9 10 32 10 50
l2 33 4 -30 c3 -16 -1 -63 -7 -104z m-2562 -51 l0 -25 -8 25 c-4 14 -8 36 -8
50 l0 25 8 -25 c4 -14 8 -36 8 -50z m-1141 13 c-3 -10 -5 -2 -5 17 0 19 2 27
5 18 2 -10 2 -26 0 -35z m4820 -30 c-3 -10 -5 -4 -5 12 0 17 2 24 5 18 2 -7 2
-21 0 -30z m26 -3 c-3 -11 -7 -20 -9 -20 -2 0 -4 9 -4 20 0 11 4 20 9 20 5 0
7 -9 4 -20z m-36 -62 c-3 -8 -6 -5 -6 6 -1 11 2 17 5 13 3 -3 4 -12 1 -19z
m96 7 c-3 -9 -8 -14 -10 -11 -3 3 -2 9 2 15 9 16 15 13 8 -4z m-4896 -27 c-3
-7 -5 -2 -5 12 0 14 2 19 5 13 2 -7 2 -19 0 -25z m141 -98 l0 -25 -8 25 c-4
14 -8 36 -8 50 l0 25 8 -25 c4 -14 8 -36 8 -50z m711 -138 c30 -74 25 -78 -10
-7 -33 65 -46 108 -54 170 -4 29 2 18 19 -35 13 -41 33 -99 45 -128z m4000 54
c-9 -8 -10 -7 -5 7 3 10 7 24 7 30 1 7 3 4 6 -7 3 -10 -1 -23 -8 -30z m-4681
-41 c0 -16 -2 -15 -8 5 -11 34 -11 60 0 35 5 -11 8 -29 8 -40z m489 33 c-3 -8
-6 -5 -6 6 -1 11 2 17 5 13 3 -3 4 -12 1 -19z m575 4 c-3 -10 -1 -13 6 -8 7 4
14 -4 18 -21 4 -15 11 -34 17 -41 5 -7 8 -15 5 -17 -5 -6 -50 59 -60 86 -4 9
-1 16 7 16 8 0 11 -7 7 -15z m2451 3 c-3 -9 -8 -14 -10 -11 -3 3 -2 9 2 15 9
16 15 13 8 -4z m-2663 -30 c0 -5 -5 -3 -10 5 -5 8 -10 20 -10 25 0 6 5 3 10
-5 5 -8 10 -19 10 -25z m60 -29 c19 -36 32 -67 30 -70 -3 -2 -21 27 -41 65
-20 38 -33 69 -30 69 3 0 22 -29 41 -64z m2571 37 c-12 -20 -14 -14 -5 12 4 9
9 14 11 11 3 -2 0 -13 -6 -23z m-2882 -26 c0 -21 -1 -21 -9 -2 -12 28 -12 37
0 30 6 -3 10 -16 9 -28z m-115 -20 c18 -44 30 -83 23 -77 -8 8 -47 110 -42
110 3 0 11 -15 19 -33z m-439 -111 c19 -59 57 -155 85 -213 27 -58 50 -106 50
-108 0 -9 87 -154 110 -185 15 -19 55 -75 89 -125 33 -49 73 -106 88 -125 42
-55 -51 44 -103 110 -74 94 -84 108 -84 117 0 5 -20 40 -45 78 -25 39 -45 75
-45 81 0 6 -8 22 -18 35 -30 39 -144 330 -167 424 -14 60 6 15 40 -89z m595
29 c0 -5 -9 5 -20 23 -11 18 -20 38 -20 45 1 14 39 -52 40 -68z m-92 18 c8
-14 8 -24 2 -28 -7 -5 -40 53 -40 72 0 8 27 -22 38 -44z m389 -79 c-6 -7 -67
100 -67 117 0 8 16 -14 36 -49 20 -35 34 -66 31 -68z m2495 94 c-7 -7 -12 -8
-12 -2 0 14 12 26 19 19 2 -3 -1 -11 -7 -17z m15 -20 c-9 -18 -30 -53 -47 -78
-36 -54 -39 -72 -7 -42 27 26 39 28 31 7 -5 -11 -1 -14 12 -9 15 5 16 4 4 -4
-8 -6 -18 -8 -22 -6 -9 6 -74 -95 -70 -109 1 -4 -1 -6 -6 -3 -10 6 -59 -41
-54 -52 1 -4 -1 -7 -5 -8 -24 -3 -103 -47 -98 -55 4 -5 1 -9 -4 -9 -6 0 -11 5
-11 10 0 7 -6 7 -19 0 -26 -13 -31 -13 -31 3 0 7 14 26 30 42 51 49 33 49 -22
0 -28 -25 -66 -53 -82 -62 -26 -12 -22 -7 19 32 28 26 42 42 33 35 -10 -7 -18
-9 -18 -4 0 5 13 18 28 29 21 15 24 15 13 2 -21 -27 3 -20 29 8 22 23 20 30
-5 25 -9 -1 21 38 39 51 4 4 17 4 27 2 13 -4 19 0 20 13 0 11 3 14 6 6 3 -8
15 1 34 24 16 20 29 30 29 23 0 -8 -15 -32 -32 -54 -18 -22 -25 -34 -17 -28 9
7 18 11 21 8 6 -6 108 110 108 123 0 13 -24 9 -44 -7 -9 -7 -16 -9 -16 -3 0 5
7 15 16 23 8 7 24 30 35 51 11 21 24 38 29 38 18 0 20 -20 5 -51 -9 -17 -14
-33 -11 -36 2 -3 17 20 32 51 15 31 29 54 32 51 3 -2 -3 -19 -11 -37z m-2617
-73 c62 -118 208 -307 318 -414 95 -91 105 -107 28 -47 -58 47 -219 228 -269
304 -55 84 -101 165 -122 217 -25 59 -4 31 45 -60z m-26 -98 c10 -15 16 -30
13 -33 -3 -3 -12 7 -20 23 -8 15 -33 62 -56 103 -22 41 -40 80 -40 85 0 6 19
-26 42 -70 23 -44 51 -93 61 -108z m75 109 c17 -32 30 -61 27 -63 -5 -5 -66
110 -66 123 0 11 4 4 39 -60z m-349 16 c0 -15 -2 -15 -10 -2 -13 20 -13 33 0
25 6 -3 10 -14 10 -23z m60 -42 c0 -5 -4 -10 -10 -10 -5 0 -10 5 -10 10 0 6 5
10 10 10 6 0 10 -4 10 -10z m120 -58 c48 -82 54 -110 6 -33 -18 29 -36 50 -38
45 -3 -5 -3 -3 -1 4 1 7 -2 22 -7 33 -6 10 -8 19 -6 19 3 0 23 -31 46 -68z
m281 -4 c5 -10 6 -18 2 -18 -4 0 -16 17 -26 38 -14 30 -14 33 -1 17 8 -11 20
-28 25 -37z m10 30 c11 -21 11 -22 -4 -9 -10 7 -17 17 -17 22 0 15 9 10 21
-13z m-426 -20 l16 -33 -21 24 c-11 13 -20 27 -20 32 0 18 10 8 25 -23z m380
-44 c9 -15 12 -23 6 -20 -11 7 -35 46 -28 46 3 0 12 -12 22 -26z m-325 1 c0
-8 -2 -15 -4 -15 -2 0 -6 7 -10 15 -3 8 -1 15 4 15 6 0 10 -7 10 -15z m738
-38 c7 -15 29 -39 48 -53 40 -31 33 -50 -14 -39 -34 7 -51 23 -81 78 -26 47
-27 55 -1 32 25 -22 26 -9 3 19 -18 20 -18 20 7 5 14 -9 31 -28 38 -42z m-267
-42 c6 -11 -2 -6 -16 10 -14 17 -31 39 -36 50 -6 11 2 7 16 -10 14 -16 31 -39
36 -50z m-26 -80 c12 -22 4 -16 -28 20 -25 27 -53 63 -62 80 -12 22 -5 17 28
-20 25 -27 53 -63 62 -80z m-273 51 c10 -19 10 -20 -6 -7 -9 8 -22 24 -28 35
-10 19 -10 20 6 7 9 -8 22 -24 28 -35z m68 14 c6 -11 8 -20 6 -20 -3 0 -10 9
-16 20 -6 11 -8 20 -6 20 3 0 10 -9 16 -20z m-666 -72 c6 -4 16 -1 22 7 10 14
12 14 18 -1 3 -9 4 -20 1 -25 -3 -5 -1 -18 6 -30 10 -19 9 -21 -5 -16 -10 4
-15 3 -11 -3 3 -6 12 -10 18 -10 7 0 21 -14 31 -30 9 -17 21 -28 26 -25 5 3
12 0 16 -6 4 -8 3 -9 -4 -5 -7 4 -12 3 -12 -1 0 -14 50 -78 60 -78 4 0 12 -4
17 -9 5 -5 2 -6 -6 -1 -9 5 -12 3 -9 -6 3 -8 11 -14 19 -14 8 -1 13 -7 11 -14
-4 -20 101 -155 206 -263 58 -60 92 -103 90 -114 -2 -13 -13 -6 -47 29 -24 24
-43 49 -43 53 1 13 -40 54 -48 49 -4 -3 -13 2 -20 10 -10 12 -10 15 1 15 7 0
-3 14 -24 31 -20 17 -37 37 -37 44 0 8 -6 18 -14 22 -8 4 -44 49 -81 98 -36
50 -75 100 -86 112 -43 46 -150 235 -149 260 1 5 10 -10 22 -32 11 -22 26 -43
32 -47z m986 -4 c36 -36 57 -62 47 -58 -13 5 -16 2 -11 -10 3 -9 2 -16 -4 -16
-5 0 -9 9 -8 19 0 10 -12 34 -29 53 -58 66 -68 78 -64 78 3 0 34 -29 69 -66z
m1620 46 c-35 -24 -54 -31 -30 -11 14 11 30 21 35 21 6 0 3 -5 -5 -10z m-1979
-27 c13 -16 12 -17 -3 -4 -10 7 -18 15 -18 17 0 8 8 3 21 -13z m2219 8 c0 -5
-7 -12 -16 -15 -14 -5 -15 -4 -4 9 14 17 20 19 20 6z m-60 -46 c-7 -8 -17 -15
-23 -15 -6 0 -2 7 9 15 25 19 30 19 14 0z m1496 -32 c-8 -15 -15 -25 -16 -21
0 12 23 58 27 54 3 -2 -2 -17 -11 -33z m-3486 -38 c15 -19 15 -19 -15 -1 -36
23 -55 47 -48 59 5 9 30 -14 63 -58z m279 -92 c2 -2 2 -6 -1 -9 -8 -7 -158
135 -158 150 0 6 35 -23 77 -64 43 -41 79 -76 82 -77z m101 9 c0 -2 -6 1 -14
7 -7 6 -20 9 -28 6 -8 -3 -25 6 -38 20 -13 14 -20 25 -16 25 5 0 2 7 -5 17 -8
9 12 -3 44 -27 31 -24 57 -45 57 -48z m279 37 c2 -7 -14 -2 -35 11 -59 35 -64
44 -14 21 24 -11 46 -25 49 -32z m2804 36 c-3 -9 -8 -14 -10 -11 -3 3 -2 9 2
15 9 16 15 13 8 -4z m-93 -12 c0 -5 -10 -19 -21 -33 l-21 -25 18 33 c18 32 24
38 24 25z m-1558 -22 c9 -11 13 -22 10 -26 -8 -7 24 3 55 18 13 6 26 7 29 4 4
-4 -17 -18 -47 -32 -56 -26 -84 -32 -74 -15 8 14 -124 -4 -190 -25 -20 -7 -20
-6 -1 9 11 9 27 16 35 16 9 0 45 16 81 35 76 40 80 41 102 16z m-1935 -34 c6
2 15 -1 19 -8 5 -9 2 -10 -10 -6 -22 9 79 -110 106 -124 11 -6 17 -16 15 -24
-3 -7 0 -19 6 -26 7 -8 -2 -1 -20 15 -18 16 -30 32 -28 36 5 8 -44 56 -53 53
-4 -2 -7 1 -7 5 0 16 -61 78 -72 75 -7 -3 -11 5 -10 16 1 20 2 20 22 2 11 -10
25 -17 32 -14z m717 -127 c23 -10 35 -19 27 -19 -16 -1 -97 41 -173 92 -87 56
-70 53 24 -5 44 -27 100 -58 122 -68z m972 101 c-3 -5 -22 -11 -42 -13 -32 -4
-34 -3 -18 9 20 15 68 18 60 4z m-1236 -33 c0 -12 -6 -9 -26 13 -19 22 -19 22
4 8 12 -8 22 -17 22 -21z m1430 22 c0 -15 -140 -76 -215 -93 -67 -15 -236 -24
-355 -18 -97 4 -20 21 125 27 89 4 157 13 215 29 47 12 110 28 140 34 30 6 62
16 70 21 19 12 20 12 20 0z m1540 -20 c-6 -11 -13 -20 -16 -20 -2 0 0 9 6 20
6 11 13 20 16 20 2 0 0 -9 -6 -20z m-2935 -82 c82 -53 190 -109 266 -137 136
-50 183 -70 165 -70 -36 -2 -192 52 -246 84 -30 18 -79 45 -109 60 -53 26
-191 122 -191 132 0 3 10 -1 23 -9 12 -9 54 -35 92 -60z m1048 65 c-7 -2 -19
-2 -25 0 -7 3 -2 5 12 5 14 0 19 -2 13 -5z m-1963 -45 c0 -6 -7 -5 -15 2 -8 7
-15 17 -15 22 0 6 7 5 15 -2 8 -7 15 -17 15 -22z m435 -18 c21 -22 37 -40 34
-40 -3 0 -23 18 -44 40 -21 22 -37 40 -34 40 3 0 23 -18 44 -40z m811 -35 c10
-8 14 -15 8 -15 -5 0 -19 7 -30 15 -10 8 -14 15 -8 15 5 0 19 -7 30 -15z
m-1262 -114 c65 -80 66 -82 23 -46 -25 21 -51 49 -58 64 -7 14 -24 42 -37 61
-38 53 -2 15 72 -79z m640 66 c4 4 12 0 17 -10 6 -9 14 -17 19 -17 5 0 43 -25
85 -55 43 -30 82 -55 89 -55 6 0 2 7 -8 15 -36 27 -11 16 90 -40 113 -62 120
-74 11 -18 -88 46 -98 49 -72 26 11 -10 21 -25 23 -33 2 -8 -9 -2 -24 13 -15
15 -39 30 -53 34 -31 8 -74 34 -66 41 7 7 -36 36 -56 37 -19 2 -97 64 -98 79
-1 5 7 2 17 -7 10 -10 22 -14 26 -10z m3100 -26 c-16 -22 -33 -41 -37 -41 -4
0 7 20 25 44 41 55 51 52 12 -3z m-2447 33 c-3 -3 -12 -4 -19 -1 -8 3 -5 6 6
6 11 1 17 -2 13 -5z m-491 -31 c-7 -7 -26 7 -26 19 0 6 6 6 15 -2 9 -7 13 -15
11 -17z m654 6 c25 -14 -9 -10 -50 7 l-35 14 35 -6 c19 -4 42 -10 50 -15z
m-150 -27 c44 -15 44 -16 18 -24 -18 -6 -34 -6 -45 1 -15 9 -13 10 12 6 26 -5
27 -5 12 5 -10 7 -28 10 -39 7 -11 -3 -17 -3 -14 0 3 3 -2 12 -12 20 -19 16
-25 18 68 -15z m191 9 c-17 -5 1 -11 70 -24 99 -19 138 -37 79 -37 -27 0 -159
29 -240 51 -8 3 72 16 95 17 16 0 15 -1 -4 -7z m-736 -11 c3 -5 2 -10 -4 -10
-5 0 -13 5 -16 10 -3 6 -2 10 4 10 5 0 13 -4 16 -10z m808 3 c-7 -2 -21 -2
-30 0 -10 3 -4 5 12 5 17 0 24 -2 18 -5z m50 -10 c-7 -2 -19 -2 -25 0 -7 3 -2
5 12 5 14 0 19 -2 13 -5z m85 -10 c-10 -2 -28 -2 -40 0 -13 2 -5 4 17 4 22 1
32 -1 23 -4z m255 0 c-13 -2 -33 -2 -45 0 -13 2 -3 4 22 4 25 0 35 -2 23 -4z
m-1358 -12 c3 -5 2 -12 -3 -15 -5 -3 -9 1 -9 9 0 17 3 19 12 6z m420 -11 c3
-6 -1 -7 -9 -4 -18 7 -21 14 -7 14 6 0 13 -4 16 -10z m-944 -27 c13 -16 12
-17 -3 -4 -10 7 -18 15 -18 17 0 8 8 3 21 -13z m-82 -57 c-2 -2 -13 8 -23 22
l-19 27 24 -22 c12 -12 21 -24 18 -27z m1459 25 c10 -6 9 -10 -7 -14 -12 -3
-19 -1 -16 3 3 5 -1 11 -7 13 -9 4 -8 6 2 6 8 0 21 -3 28 -8z m-516 -55 c4 3
32 -8 64 -25 54 -27 56 -30 29 -30 -32 -1 -75 18 -45 19 9 1 5 6 -10 15 -14 8
-32 12 -41 9 -11 -3 -18 3 -22 18 -5 21 -5 21 7 6 7 -10 15 -15 18 -12z m-718
-103 c8 -19 2 -16 -25 13 -23 25 -23 26 -2 13 13 -7 25 -19 27 -26z m126 -111
c0 -7 -56 36 -75 59 -11 12 1 5 28 -16 26 -22 47 -41 47 -43z m61 -9 c13 -16
12 -17 -3 -4 -17 13 -22 21 -14 21 2 0 10 -8 17 -17z m69 -84 l25 -21 -33 19
c-19 10 -39 24 -45 32 -10 12 -9 12 8 3 11 -6 31 -21 45 -33z m2885 1 c3 -5 0
-7 -8 -5 -7 3 -22 -3 -32 -15 -10 -11 -28 -20 -39 -19 -20 1 -19 1 2 7 13 4
23 11 22 17 -1 5 7 12 17 16 25 11 31 10 38 -1z m-2774 -77 c13 -17 13 -17 -6
-3 -11 8 -22 16 -24 17 -2 2 0 3 6 3 6 0 17 -8 24 -17z m129 -39 c0 -2 -9 0
-20 6 -11 6 -20 13 -20 16 0 2 9 0 20 -6 11 -6 20 -13 20 -16z m2525 6 c-3 -5
-10 -10 -16 -10 -5 0 -9 5 -9 10 0 6 7 10 16 10 8 0 12 -4 9 -10z m-2570 -18
c-3 -3 -11 0 -18 7 -9 10 -8 11 6 5 10 -3 15 -9 12 -12z m160 -43 c13 -13 -86
30 -100 43 -5 5 13 0 40 -12 28 -12 55 -26 60 -31z m2325 12 c-31 -27 -110
-66 -85 -42 12 11 108 71 115 71 2 0 -11 -13 -30 -29z m-110 -26 c-19 -14 -39
-25 -44 -25 -13 0 55 49 68 50 6 0 -5 -11 -24 -25z m-5 -44 c-6 -5 -21 -12
-35 -15 l-25 -7 25 15 c28 17 50 21 35 7z m-2110 -21 c3 -6 -1 -7 -9 -4 -18 7
-21 14 -7 14 6 0 13 -4 16 -10z m210 -70 c3 -6 -1 -7 -9 -4 -18 7 -21 14 -7
14 6 0 13 -4 16 -10z m1452 -46 c-3 -3 -12 -4 -19 -1 -8 3 -5 6 6 6 11 1 17
-2 13 -5z m-1060 -10 c-3 -3 -12 -4 -19 -1 -8 3 -5 6 6 6 11 1 17 -2 13 -5z
m1143 -14 c-8 -5 -19 -10 -25 -10 -5 0 -3 5 5 10 8 5 20 10 25 10 6 0 3 -5 -5
-10z m-1193 -6 c-3 -3 -12 -4 -19 -1 -8 3 -5 6 6 6 11 1 17 -2 13 -5z m81 -11
c-10 -2 -28 -2 -40 0 -13 2 -5 4 17 4 22 1 32 -1 23 -4z m1057 -3 c-3 -5 -14
-10 -23 -10 -15 0 -15 2 -2 10 20 13 33 13 25 0z m-452 -27 c-7 -2 -21 -2 -30
0 -10 3 -4 5 12 5 17 0 24 -2 18 -5z m-96 -9 c-3 -3 -12 -4 -19 -1 -8 3 -5 6
6 6 11 1 17 -2 13 -5z m418 -4 c-11 -5 -27 -9 -35 -9 -13 -1 -13 0 0 9 8 5 24
9 35 9 l20 0 -20 -9z"/>
<path d="M3690 5232 c0 -10 171 -94 178 -88 3 4 3 8 1 10 -11 11 -179 84 -179
78z"/>
<path d="M3700 5136 c0 -2 7 -7 16 -10 8 -3 12 -2 9 4 -6 10 -25 14 -25 6z"/>
<path d="M3753 5125 c-20 -22 14 -37 38 -16 11 8 19 19 19 23 0 14 -44 8 -57
-7z"/>
<path d="M4660 5070 c0 -5 5 -10 11 -10 5 0 7 5 4 10 -3 6 -8 10 -11 10 -2 0
-4 -4 -4 -10z"/>
<path d="M3828 4918 c23 -11 30 -28 11 -28 -5 0 -7 -5 -4 -11 4 -6 13 -8 20
-5 9 3 11 -2 7 -16 -4 -16 -2 -19 8 -13 10 6 12 4 7 -8 -4 -11 2 -22 16 -32
12 -8 17 -15 11 -15 -5 0 -21 8 -34 17 -14 10 -27 17 -30 17 -3 -1 -22 10 -42
22 -44 28 -47 29 -44 9 3 -21 44 -48 61 -41 8 3 14 0 12 -6 -1 -7 7 -13 18
-15 51 -9 62 -14 84 -34 16 -15 26 -18 33 -11 8 8 4 14 -15 21 -34 13 -35 23
-2 15 21 -5 25 -3 25 14 0 12 -9 23 -19 27 -11 3 -25 13 -33 22 -11 14 -11 16
2 8 8 -4 28 -17 43 -28 30 -21 54 -14 25 7 -10 7 -15 15 -12 18 3 3 -8 11 -23
17 -15 6 -35 15 -43 19 -44 26 -80 42 -92 41 -7 0 -3 -5 10 -11z m117 -108 c8
-13 -5 -13 -25 0 -13 8 -13 10 2 10 9 0 20 -4 23 -10z"/>
<path d="M3730 4836 c0 -2 8 -10 18 -17 15 -13 16 -12 3 4 -13 16 -21 21 -21
13z"/>
<path d="M3890 4716 c0 -8 71 -48 76 -43 3 3 -12 15 -35 27 -23 11 -41 18 -41
16z"/>
<path d="M1279 4363 c-13 -16 -12 -17 4 -4 16 13 21 21 13 21 -2 0 -10 -8 -17
-17z"/>
<path d="M1102 4238 c-51 -86 -94 -171 -126 -252 -45 -110 -47 -139 -3 -36 18
42 46 98 63 125 17 28 40 66 50 85 11 19 23 38 28 42 8 5 17 68 10 68 -1 0
-11 -15 -22 -32z"/>
<path d="M4346 3093 c9 -53 15 -55 12 -5 -2 23 -7 42 -11 42 -4 0 -5 -17 -1
-37z"/>
<path d="M4499 3098 c-1 -2 -7 -68 -14 -148 -20 -218 -44 -342 -90 -452 -4
-10 -3 -18 2 -18 14 0 70 181 87 280 15 89 31 340 21 340 -3 0 -5 -1 -6 -2z"/>
<path d="M4572 2967 c-1 -32 -6 -67 -12 -77 -5 -10 -13 -44 -16 -76 -4 -33
-11 -70 -17 -84 -6 -14 -11 -27 -12 -30 -1 -3 -4 -12 -7 -20 -19 -48 -26 -82
-22 -95 4 -8 2 -15 -4 -15 -5 0 -13 -12 -17 -27 -5 -22 -8 -24 -16 -12 -8 11
-9 9 -5 -7 7 -22 -60 -178 -72 -170 -4 2 -18 -14 -31 -36 -13 -22 -18 -37 -11
-33 9 6 9 2 1 -14 -7 -11 -14 -21 -17 -21 -3 0 -2 5 1 10 3 6 4 10 1 10 -3 0
-10 -10 -17 -21 -9 -17 -8 -20 3 -14 7 4 4 -2 -7 -12 -28 -24 -54 -59 -37 -49
21 13 13 -5 -25 -56 -21 -27 -39 -44 -41 -38 -3 7 -12 4 -26 -7 l-21 -18 19
22 c10 13 22 20 26 18 4 -3 13 1 19 9 9 10 8 15 -3 19 -8 3 -20 -1 -26 -8 -7
-8 -16 -13 -20 -10 -4 2 -22 -12 -41 -32 -19 -20 -28 -33 -21 -29 17 10 15 -9
-3 -24 -8 -7 -12 -16 -9 -21 3 -5 0 -8 -8 -7 -7 2 -12 -3 -10 -10 1 -8 -2 -11
-6 -8 -5 3 -17 -3 -27 -14 -10 -11 -15 -20 -10 -20 4 0 2 -7 -5 -15 -7 -8 -16
-12 -22 -9 -5 3 -28 -14 -52 -39 -23 -25 -62 -55 -87 -67 -60 -31 -119 -71
-119 -81 0 -30 243 132 344 229 38 37 66 61 62 55 -4 -7 -3 -13 1 -13 9 0 133
145 133 155 0 8 34 45 42 45 4 0 -4 -17 -18 -37 -13 -21 -23 -41 -22 -44 2 -3
-3 -14 -11 -25 -7 -10 1 -3 18 16 28 30 127 197 144 240 3 8 21 53 41 98 19
46 40 107 45 135 26 131 41 219 41 240 0 13 5 28 10 33 7 7 9 44 7 90 -2 67
-3 70 -5 21z m-181 -650 c-25 -39 -27 -30 -5 21 9 20 18 31 21 24 3 -7 -5 -27
-16 -45z m-110 -130 c-10 -9 -11 -8 -5 6 3 10 9 15 12 12 3 -3 0 -11 -7 -18z
m-137 -112 c-9 -14 -19 -23 -22 -20 -5 4 26 45 35 45 2 0 -4 -11 -13 -25z"/>
<path d="M4481 2664 c0 -11 3 -14 6 -6 3 7 2 16 -1 19 -3 4 -6 -2 -5 -13z"/>
<path d="M971 2592 c-1 -15 39 -152 44 -152 6 0 -3 57 -13 80 -6 14 -15 39
-21 55 -5 17 -10 24 -10 17z"/>
<path d="M4560 2515 c0 -5 5 -17 10 -25 5 -8 10 -10 10 -5 0 6 -5 17 -10 25
-5 8 -10 11 -10 5z"/>
<path d="M4507 2388 c-62 -132 -142 -256 -233 -364 -51 -61 -174 -194 -228
-246 -15 -15 -23 -28 -18 -28 6 0 14 5 17 10 3 6 11 10 16 10 6 0 7 -6 2 -12
-31 -51 203 178 263 257 75 98 224 393 224 442 0 8 4 11 10 8 6 -3 7 1 4 9 -3
9 -7 16 -8 16 0 0 -23 -46 -49 -102z m-377 -568 c-36 -28 -46 -24 -13 4 15 13
30 22 33 19 3 -2 -6 -13 -20 -23z"/>
<path d="M4601 2437 c-33 -75 -34 -77 -24 -77 9 0 56 120 50 126 -2 2 -14 -20
-26 -49z"/>
<path d="M4372 2433 c-15 -48 -8 -55 8 -8 7 20 10 38 8 41 -3 2 -10 -13 -16
-33z"/>
<path d="M4316 2443 c-6 -14 -5 -15 5 -6 7 7 10 15 7 18 -3 3 -9 -2 -12 -12z"/>
<path d="M1060 2443 c0 -19 65 -181 118 -293 45 -94 73 -142 163 -276 26 -39
74 -87 53 -54 -13 22 -84 130 -106 163 -28 41 -156 299 -194 392 -18 44 -33
75 -34 68z"/>
<path d="M1046 2340 c9 -35 50 -133 86 -205 57 -112 205 -340 245 -376 21 -19
19 -14 -10 26 -118 158 -166 243 -310 545 -11 23 -15 26 -11 10z"/>
<path d="M4551 2303 c-11 -26 -25 -55 -31 -63 -6 -8 -13 -23 -16 -32 -6 -16
-17 -22 -36 -19 -4 0 -4 -7 -1 -16 4 -11 3 -14 -5 -9 -7 4 -10 2 -6 -7 5 -14
-13 -35 -31 -35 -5 0 -11 -6 -13 -14 -2 -9 0 -8 7 2 21 30 11 -10 -11 -45 -21
-32 -49 -51 -32 -22 4 6 -7 -1 -24 -17 -18 -17 -32 -35 -32 -42 0 -6 -7 -17
-15 -24 -9 -7 -14 -19 -11 -26 6 -15 -47 -79 -66 -79 -7 0 -54 -41 -105 -90
-50 -50 -119 -107 -152 -129 -54 -34 -79 -66 -51 -66 6 0 10 5 10 10 0 6 5 10
11 10 7 0 18 8 26 18 8 9 11 11 7 3 -5 -9 -3 -12 4 -7 7 4 12 13 12 19 0 15
58 52 67 43 10 -10 166 130 238 214 120 138 254 341 259 394 2 12 8 32 15 44
7 13 10 26 8 29 -3 2 -15 -17 -26 -44z m-191 -297 c0 -2 -8 -10 -17 -17 -16
-13 -17 -12 -4 4 13 16 21 21 21 13z"/>
<path d="M1160 2293 c0 -12 7 -23 15 -27 13 -5 14 -2 4 17 -17 32 -19 33 -19
10z"/>
<path d="M1190 2241 c0 -5 5 -13 10 -16 6 -3 10 -2 10 4 0 5 -4 13 -10 16 -5
3 -10 2 -10 -4z"/>
<path d="M943 2178 c20 -46 76 -154 77 -146 0 10 -79 178 -85 178 -3 0 1 -15
8 -32z"/>
<path d="M1030 2201 c0 -5 7 -14 15 -21 17 -15 20 -35 4 -24 -9 5 -10 -1 -5
-22 4 -16 8 -37 9 -46 1 -9 5 -14 9 -12 4 3 16 -12 27 -33 11 -21 34 -58 50
-83 32 -47 39 -66 20 -54 -7 4 -7 -2 1 -17 18 -34 24 -38 16 -11 -4 12 -5 22
-2 22 10 0 47 -70 41 -80 -7 -11 61 -105 76 -105 14 0 100 -96 94 -104 -6 -11
24 -51 39 -51 7 0 35 -25 62 -56 27 -30 65 -67 84 -82 l35 -26 -40 46 c-40 45
-77 88 -174 203 -28 33 -51 66 -51 73 0 6 -5 12 -11 12 -16 0 -48 42 -49 63 0
9 -10 22 -22 28 -13 6 -45 49 -72 97 -28 48 -56 92 -64 98 -8 6 -12 16 -8 22
4 6 -3 25 -15 41 -12 17 -23 39 -24 49 -2 27 -26 82 -36 82 -5 0 -9 -4 -9 -9z"/>
<path d="M1212 2165 c6 -14 15 -25 20 -25 11 0 10 7 -2 31 -16 28 -32 23 -18
-6z"/>
<path d="M4184 2153 c-17 -24 -20 -32 -8 -20 12 9 23 15 26 12 3 -3 11 3 19
12 13 16 12 17 -3 4 -20 -15 -25 -2 -6 17 7 7 9 12 6 12 -3 0 -18 -17 -34 -37z"/>
<path d="M4227 2143 c-4 -3 -7 -11 -7 -17 0 -6 5 -5 12 2 6 6 9 14 7 17 -3 3
-9 2 -12 -2z"/>
<path d="M940 2131 c0 -6 4 -13 10 -16 6 -3 7 1 4 9 -7 18 -14 21 -14 7z"/>
<path d="M1268 2068 c17 -29 35 -52 42 -50 6 1 10 -3 8 -10 -3 -18 21 -60 32
-53 5 3 13 -3 19 -12 6 -10 11 -14 11 -10 0 14 -123 187 -133 187 -5 0 5 -24
21 -52z"/>
<path d="M4386 2073 c-6 -14 -5 -15 5 -6 7 7 10 15 7 18 -3 3 -9 -2 -12 -12z"/>
<path d="M4196 2029 c-30 -33 -52 -49 -62 -45 -8 3 -12 2 -9 -3 3 -5 1 -12 -5
-16 -6 -4 -8 -10 -5 -15 3 -4 -14 -24 -36 -45 -22 -20 -38 -39 -34 -43 3 -3
34 23 69 58 93 96 139 150 134 155 -3 3 -26 -18 -52 -46z"/>
<path d="M1065 1993 c48 -88 140 -226 167 -249 12 -11 -16 36 -60 103 -45 66
-91 142 -102 167 -10 25 -24 46 -31 46 -6 0 6 -30 26 -67z"/>
<path d="M1121 1852 c13 -24 30 -49 38 -55 18 -14 -10 36 -41 74 -16 20 -16
17 3 -19z"/>
<path d="M1180 1852 c0 -5 7 -15 15 -22 8 -7 15 -8 15 -2 0 5 -7 15 -15 22 -8
7 -15 8 -15 2z"/>
<path d="M4399 1833 l-24 -28 28 24 c25 23 32 31 24 31 -2 0 -14 -12 -28 -27z"/>
<path d="M4319 1781 c-17 -22 -31 -43 -31 -48 0 -4 -4 -14 -10 -20 -7 -9 -7
-13 0 -13 5 0 26 18 46 40 35 39 46 57 26 45 -14 -9 -13 8 2 23 7 7 9 12 5 12
-3 0 -20 -18 -38 -39z m1 -31 c-32 -28 -38 -25 -10 5 13 14 26 23 28 20 3 -3
-5 -14 -18 -25z"/>
<path d="M1428 1763 c17 -21 43 -49 58 -63 16 -14 4 3 -25 38 -57 67 -81 85
-33 25z"/>
<path d="M4279 1783 c-13 -16 -12 -17 4 -4 9 7 17 15 17 17 0 8 -8 3 -21 -13z"/>
<path d="M4961 1767 c-13 -21 -12 -21 5 -5 10 10 16 20 13 22 -3 3 -11 -5 -18
-17z"/>
<path d="M4930 1720 c-6 -11 -8 -20 -6 -20 3 0 10 9 16 20 6 11 8 20 6 20 -3
0 -10 -9 -16 -20z"/>
<path d="M3840 1705 c-14 -8 -20 -14 -15 -14 6 0 21 6 35 14 14 8 21 14 15 14
-5 0 -21 -6 -35 -14z"/>
<path d="M4299 1693 l-24 -28 28 24 c25 23 32 31 24 31 -2 0 -14 -12 -28 -27z"/>
<path d="M1319 1672 c17 -22 38 -45 48 -53 10 -8 -2 10 -26 39 -49 60 -68 71
-22 14z"/>
<path d="M1285 1680 c10 -11 20 -20 23 -20 3 0 -3 9 -13 20 -10 11 -20 20 -23
20 -3 0 3 -9 13 -20z"/>
<path d="M3875 1660 c-16 -11 -25 -20 -20 -20 10 0 64 39 55 40 -3 0 -18 -9
-35 -20z"/>
<path d="M1520 1655 c7 -8 17 -15 22 -15 6 0 5 7 -2 15 -7 8 -17 15 -22 15 -6
0 -5 -7 2 -15z"/>
<path d="M1364 1588 c21 -27 40 -48 43 -48 8 0 -34 54 -58 75 -13 11 -6 -1 15
-27z"/>
<path d="M1565 1610 c10 -11 20 -20 23 -20 3 0 -3 9 -13 20 -10 11 -20 20 -23
20 -3 0 3 -9 13 -20z"/>
<path d="M1530 1585 c13 -14 26 -25 28 -25 3 0 -5 11 -18 25 -13 14 -26 25
-28 25 -3 0 5 -11 18 -25z"/>
<path d="M3158 1603 c6 -2 18 -2 25 0 6 3 1 5 -13 5 -14 0 -19 -2 -12 -5z"/>
<path d="M3258 1593 c6 -2 18 -2 25 0 6 3 1 5 -13 5 -14 0 -19 -2 -12 -5z"/>
<path d="M1420 1526 c0 -12 132 -136 144 -136 6 0 -1 10 -15 22 -13 11 -48 44
-76 72 -29 28 -53 46 -53 42z"/>
<path d="M3358 1525 c-3 -3 -47 -11 -99 -19 -88 -12 -92 -14 -65 -25 18 -7 32
-8 35 -2 3 5 31 14 61 19 61 12 114 30 89 31 -9 1 -18 -1 -21 -4z"/>
<path d="M2173 1491 c20 -18 41 -30 47 -26 5 3 10 2 10 -3 0 -5 48 -28 106
-51 110 -44 153 -52 61 -11 -28 13 -95 44 -147 69 -52 25 -99 48 -105 50 -5 2
7 -10 28 -28z"/>
<path d="M1870 1491 c0 -5 13 -18 30 -27 18 -11 25 -21 19 -25 -6 -3 1 -6 15
-6 14 0 26 0 26 2 0 1 -20 16 -45 34 -25 18 -45 28 -45 22z"/>
<path d="M1745 1465 c32 -28 65 -49 65 -41 0 3 -21 19 -47 36 -41 27 -43 27
-18 5z"/>
<path d="M2898 1463 c7 -3 16 -2 19 1 4 3 -2 6 -13 5 -11 0 -14 -3 -6 -6z"/>
<path d="M2688 1453 c6 -2 18 -2 25 0 6 3 1 5 -13 5 -14 0 -19 -2 -12 -5z"/>
<path d="M2380 1310 c-8 -5 -10 -10 -5 -10 6 0 17 5 25 10 8 5 11 10 5 10 -5
0 -17 -5 -25 -10z"/>
<path d="M2480 1280 c-8 -5 -10 -10 -5 -10 6 0 17 5 25 10 8 5 11 10 5 10 -5
0 -17 -5 -25 -10z"/>
<path d="M2515 1270 c-3 -5 -2 -10 4 -10 5 0 17 -3 25 -6 12 -5 15 -2 10 10
-7 18 -29 21 -39 6z"/>
<path d="M1970 1050 c12 -8 12 -10 1 -10 -21 0 -11 -7 53 -35 31 -14 55 -21
52 -16 -4 5 -22 15 -41 21 -19 6 -33 16 -30 20 3 5 -3 14 -14 19 -25 14 -41
14 -21 1z"/>
<path d="M3785 850 c-13 -6 -15 -9 -5 -9 8 0 22 4 30 9 18 12 2 12 -25 0z"/>
<path d="M3820 819 c0 -5 5 -7 10 -4 6 3 10 8 10 11 0 2 -4 4 -10 4 -5 0 -10
-5 -10 -11z"/>
<path d="M3560 785 c-25 -7 -36 -13 -25 -13 11 0 38 5 60 13 52 17 24 17 -35
0z"/>
<path d="M4300 5310 c0 -5 5 -10 11 -10 5 0 7 5 4 10 -3 6 -8 10 -11 10 -2 0
-4 -4 -4 -10z"/>
<path d="M1186 3685 c-3 -9 -6 -22 -5 -28 0 -7 5 -1 10 12 5 13 8 26 5 28 -2
2 -6 -3 -10 -12z"/>
<path d="M1704 3965 c-9 -14 -15 -27 -13 -30 3 -2 12 10 21 26 21 36 15 39 -8
4z"/>
<path d="M1521 3374 c0 -11 3 -14 6 -6 3 7 2 16 -1 19 -3 4 -6 -2 -5 -13z"/>
<path d="M1527 3013 c-10 -10 -7 -51 8 -108 l14 -50 -5 80 c-6 85 -7 89 -17
78z"/>
<path d="M1581 2754 c0 -11 3 -14 6 -6 3 7 2 16 -1 19 -3 4 -6 -2 -5 -13z"/>
<path d="M623 3215 c0 -33 2 -45 4 -27 2 18 2 45 0 60 -2 15 -4 0 -4 -33z"/>
<path d="M640 3070 c0 -77 4 -140 8 -140 4 0 8 63 8 140 1 77 -3 140 -8 140
-4 0 -8 -63 -8 -140z"/>
<path d="M650 2844 c0 -16 5 -36 10 -44 6 -10 7 -2 3 25 -7 49 -13 58 -13 19z"/>
<path d="M4126 2334 c-10 -14 -16 -28 -13 -30 2 -3 12 7 21 22 10 14 16 28 13
30 -2 3 -12 -7 -21 -22z"/>
<path d="M4069 2173 l-24 -28 28 24 c25 23 32 31 24 31 -2 0 -14 -12 -28 -27z"/>
<path d="M2057 1879 c12 -12 25 -20 28 -17 3 3 -7 13 -22 23 l-28 17 22 -23z"/>
<path d="M1720 1706 c0 -2 8 -10 18 -17 15 -13 16 -12 3 4 -13 16 -21 21 -21
13z"/>
<path d="M1867 1579 c7 -7 15 -10 18 -7 3 3 -2 9 -12 12 -14 6 -15 5 -6 -5z"/>
</g>
</svg>
